HIERARCHY
ROOT Hips
{
    OFFSET   0.000000   0.000000   0.000000
    CHANNELS 6 Xposition Yposition Zposition Zrotation Xrotation Yrotation
    JOINT Chest
    {
        OFFSET   0.000000   8.007230   0.000000
        CHANNELS 3 Zrotation Xrotation Yrotation
        JOINT Chest2
        {
            OFFSET   0.000000  22.077100   0.000000
            CHANNELS 3 Zrotation Xrotation Yrotation
            JOINT Neck
            {
                OFFSET   0.000000  23.254800   0.000000
                CHANNELS 3 Zrotation Xrotation Yrotation
                JOINT Head
                {
                    OFFSET   0.000010  14.370000   1.956600
                    CHANNELS 3 Zrotation Xrotation Yrotation
                    End Site
                    {
                        OFFSET   0.000000  19.566000   0.000000
                    }
                }
            }
            JOINT LeftCollar
            {
                OFFSET   3.911900  19.017000  -0.467062
                CHANNELS 3 Zrotation Xrotation Yrotation
                JOINT LeftShoulder
                {
                    OFFSET  10.383700   0.000000   0.000000
                    CHANNELS 3 Zrotation Xrotation Yrotation
                    JOINT LeftElbow
                    {
                        OFFSET  26.662100   0.001193   0.000835
                        CHANNELS 3 Zrotation Xrotation Yrotation
                        JOINT LeftWrist
                        {
                            OFFSET  28.869000  -0.000058  -0.000075
                            CHANNELS 3 Zrotation Xrotation Yrotation
                            JOINT LeftFinger0
                            {
                                OFFSET   2.044660  -2.323460   3.252850
                                CHANNELS 3 Zrotation Xrotation Yrotation
                                JOINT LeftFinger01
                                {
                                    OFFSET   3.088130   0.000000   0.000000
                                    CHANNELS 3 Zrotation Xrotation Yrotation
                                    JOINT LeftFinger02
                                    {
                                        OFFSET   2.639450   0.000000   0.000000
                                        CHANNELS 3 Zrotation Xrotation Yrotation
                                        End Site
                                        {
                                            OFFSET   2.582190   0.000000   0.000000
                                        }
                                    }
                                }
                            }
                            JOINT LeftFinger1
                            {
                                OFFSET   8.364480   0.000000   3.252850
                                CHANNELS 3 Zrotation Xrotation Yrotation
                                JOINT LeftFinger11
                                {
                                    OFFSET   4.646920   0.000000   0.000000
                                    CHANNELS 3 Zrotation Xrotation Yrotation
                                    JOINT LeftFinger12
                                    {
                                        OFFSET   2.323460   0.000000   0.000000
                                        CHANNELS 3 Zrotation Xrotation Yrotation
                                        End Site
                                        {
                                            OFFSET   2.273050   0.000000   0.000000
                                        }
                                    }
                                }
                            }
                            JOINT LeftFinger2
                            {
                                OFFSET   8.364490   0.000016   1.078090
                                CHANNELS 3 Zrotation Xrotation Yrotation
                                JOINT LeftFinger21
                                {
                                    OFFSET   5.111620   0.000000   0.000000
                                    CHANNELS 3 Zrotation Xrotation Yrotation
                                    JOINT LeftFinger22
                                    {
                                        OFFSET   2.788150   0.000012   0.000000
                                        CHANNELS 3 Zrotation Xrotation Yrotation
                                        End Site
                                        {
                                            OFFSET   2.727660   0.000000   0.000000
                                        }
                                    }
                                }
                            }
                            JOINT LeftFinger3
                            {
                                OFFSET   7.899780   0.000014  -1.078090
                                CHANNELS 3 Zrotation Xrotation Yrotation
                                JOINT LeftFinger31
                                {
                                    OFFSET   4.646930   0.000000   0.000000
                                    CHANNELS 3 Zrotation Xrotation Yrotation
                                    JOINT LeftFinger32
                                    {
                                        OFFSET   2.323470   0.000000   0.000000
                                        CHANNELS 3 Zrotation Xrotation Yrotation
                                        End Site
                                        {
                                            OFFSET   2.273050   0.000000   0.000000
                                        }
                                    }
                                }
                            }
                            JOINT LeftFinger4
                            {
                                OFFSET   7.435090   0.000000  -3.252850
                                CHANNELS 3 Zrotation Xrotation Yrotation
                                JOINT LeftFinger41
                                {
                                    OFFSET   3.717550   0.000000   0.000000
                                    CHANNELS 3 Zrotation Xrotation Yrotation
                                    JOINT LeftFinger42
                                    {
                                        OFFSET   1.858770   0.000000   0.000000
                                        CHANNELS 3 Zrotation Xrotation Yrotation
                                        End Site
                                        {
                                            OFFSET   1.818440   0.000000   0.000000
                                        }
                                    }
                                }
                            }
                        }
                    }
                }
            }
            JOINT RightCollar
            {
                OFFSET  -3.911900  19.017000  -0.467063
                CHANNELS 3 Zrotation Xrotation Yrotation
                JOINT RightShoulder
                {
                    OFFSET -10.383700   0.000023   0.000000
                    CHANNELS 3 Zrotation Xrotation Yrotation
                    JOINT RightElbow
                    {
                        OFFSET -26.662100   0.001246   0.001011
                        CHANNELS 3 Zrotation Xrotation Yrotation
                        JOINT RightWrist
                        {
                            OFFSET -28.869000  -0.000026  -0.000078
                            CHANNELS 3 Zrotation Xrotation Yrotation
                            JOINT RightFinger0
                            {
                                OFFSET  -2.044660  -2.323490   3.252850
                                CHANNELS 3 Zrotation Xrotation Yrotation
                                JOINT RightFinger01
                                {
                                    OFFSET  -3.088130   0.000000   0.000000
                                    CHANNELS 3 Zrotation Xrotation Yrotation
                                    JOINT RightFinger02
                                    {
                                        OFFSET  -2.639460   0.000000   0.000000
                                        CHANNELS 3 Zrotation Xrotation Yrotation
                                        End Site
                                        {
                                            OFFSET  -2.582190   0.000000   0.000000
                                        }
                                    }
                                }
                            }
                            JOINT RightFinger1
                            {
                                OFFSET  -8.364480   0.000000   3.252850
                                CHANNELS 3 Zrotation Xrotation Yrotation
                                JOINT RightFinger11
                                {
                                    OFFSET  -4.646920   0.000000   0.000000
                                    CHANNELS 3 Zrotation Xrotation Yrotation
                                    JOINT RightFinger12
                                    {
                                        OFFSET  -2.323470   0.000000   0.000000
                                        CHANNELS 3 Zrotation Xrotation Yrotation
                                        End Site
                                        {
                                            OFFSET  -2.273050   0.000000   0.000000
                                        }
                                    }
                                }
                            }
                            JOINT RightFinger2
                            {
                                OFFSET  -8.364480   0.000000   1.078090
                                CHANNELS 3 Zrotation Xrotation Yrotation
                                JOINT RightFinger21
                                {
                                    OFFSET  -5.111620   0.000000   0.000000
                                    CHANNELS 3 Zrotation Xrotation Yrotation
                                    JOINT RightFinger22
                                    {
                                        OFFSET  -2.788160   0.000000   0.000000
                                        CHANNELS 3 Zrotation Xrotation Yrotation
                                        End Site
                                        {
                                            OFFSET  -2.727660   0.000000   0.000000
                                        }
                                    }
                                }
                            }
                            JOINT RightFinger3
                            {
                                OFFSET  -7.899780   0.000000  -1.078090
                                CHANNELS 3 Zrotation Xrotation Yrotation
                                JOINT RightFinger31
                                {
                                    OFFSET  -4.646930   0.000000   0.000000
                                    CHANNELS 3 Zrotation Xrotation Yrotation
                                    JOINT RightFinger32
                                    {
                                        OFFSET  -2.323470   0.000000   0.000000
                                        CHANNELS 3 Zrotation Xrotation Yrotation
                                        End Site
                                        {
                                            OFFSET  -2.273050   0.000000   0.000000
                                        }
                                    }
                                }
                            }
                            JOINT RightFinger4
                            {
                                OFFSET  -7.435090   0.000000  -3.252850
                                CHANNELS 3 Zrotation Xrotation Yrotation
                                JOINT RightFinger41
                                {
                                    OFFSET  -3.717550   0.000000   0.000000
                                    CHANNELS 3 Zrotation Xrotation Yrotation
                                    JOINT RightFinger42
                                    {
                                        OFFSET  -1.858760   0.000000   0.000000
                                        CHANNELS 3 Zrotation Xrotation Yrotation
                                        End Site
                                        {
                                            OFFSET  -1.818440   0.000000   0.000000
                                        }
                                    }
                                }
                            }
                        }
                    }
                }
            }
        }
    }
    JOINT LeftHip
    {
        OFFSET   9.783010   0.000000   0.000000
        CHANNELS 3 Zrotation Xrotation Yrotation
        JOINT LeftKnee
        {
            OFFSET   0.000073 -41.789100   0.001749
            CHANNELS 3 Zrotation Xrotation Yrotation
            JOINT LeftAnkle
            {
                OFFSET   0.000111 -41.133200  -0.000179
                CHANNELS 3 Zrotation Xrotation Yrotation
                JOINT LeftToe
                {
                    OFFSET   0.000000  -6.358960  14.674500
                    CHANNELS 3 Zrotation Xrotation Yrotation
                    End Site
                    {
                        OFFSET   0.000000   0.000000   3.913200
                    }
                }
            }
        }
    }
    JOINT RightHip
    {
        OFFSET  -9.783010   0.000000   0.000000
        CHANNELS 3 Zrotation Xrotation Yrotation
        JOINT RightKnee
        {
            OFFSET   0.000424 -41.789200   0.005205
            CHANNELS 3 Zrotation Xrotation Yrotation
            JOINT RightAnkle
            {
                OFFSET   0.000000 -41.133200  -0.000155
                CHANNELS 3 Zrotation Xrotation Yrotation
                JOINT RightToe
                {
                    OFFSET   0.000000  -6.358960  14.674500
                    CHANNELS 3 Zrotation Xrotation Yrotation
                    End Site
                    {
                        OFFSET   0.000000   0.000000   3.913200
                    }
                }
            }
        }
    }
}
MOTION
Frames: 4
Frame Time:   0.016667
  0.245680  90.040300   1.481140  -0.484412  -0.989380  -4.144970  -0.403785   1.560390  -0.931982  -0.782559   3.127120  -1.853970   1.760680   0.717687  -0.023725   2.888360   1.450360   6.945590  -4.901680  -1.099350   5.440710 -72.810100  17.272800   2.489060  -3.956710  -7.958050 -15.332500  14.490900  -1.866160   9.550260  35.692300  19.017500 -53.117600 -27.857600   0.007017   0.003790  -8.940200   0.008302   0.006888 -30.975300   7.677290 -12.546900 -26.035000  -0.000944   0.001179 -18.224500  -0.000410   0.000804 -28.526300   1.749000  -3.214740 -36.981800  -0.007447   0.000549 -24.629900   0.004625   0.000067 -26.413000   1.629580  -3.276850 -26.459600  -0.002217   0.000620 -17.622100  -0.003470   0.000312 -29.607200   1.311260  -2.306120 -44.450400   0.001403  -0.000664 -29.604000   0.011118  -0.009556  10.010800   1.922830   7.019560  69.231400  10.631000  -4.027820   2.259720  -4.907650  15.791900 -13.586600 -16.818400   5.587330 -39.624100  34.991100  70.176900  30.533100   0.002436  -0.001361  10.268500   0.000769  -0.002559  35.321300   6.343190   8.862140  29.301800   0.000453   0.014524  20.511300   0.001540   0.009267  28.290900   1.455750   2.701680  34.484300  -0.000470   0.000226  22.966500   0.007120   0.011530  28.587300  -0.297895  -0.546561  37.290900  -0.010490  -0.001322  24.835700   0.006163   0.014237  41.667700  -1.565200  -1.760360  62.537100  -0.000222   0.000790  41.649700   0.000771   0.001589   0.385882   1.429230   2.456860   1.052640   2.415000  14.409900  -5.869550  -4.655990   4.251750   0.000000   0.000000   0.000000   0.877404   0.205620  -5.648290   0.658530   3.870650  -9.095300 -10.690800   0.417810  -1.329540  -0.000000   0.000000   0.000000
  0.251581  90.040300   1.492990  -0.483970  -0.982397  -4.152180  -0.403862   1.560350  -0.929469  -0.782814   3.126990  -1.848960   1.755720   0.723433  -0.023662   2.882660   1.462230   6.975390  -4.901130  -1.104890   5.440820 -72.810200  17.294500   2.474480  -3.956620  -7.980240 -15.337100  14.491100  -1.865940   9.557360  35.686600  19.021000 -53.130900 -27.865900   0.007013   0.003789  -8.940200   0.008309   0.006884 -31.029200   7.686360 -12.535300 -26.079200  -0.000936   0.001183 -18.255400  -0.000412   0.000809 -28.526900   1.743930  -3.205030 -37.019700  -0.007450   0.000556 -24.655100   0.004617   0.000072 -26.430700   1.625700  -3.266560 -26.477000  -0.002206   0.000623 -17.633700  -0.003475   0.000316 -29.632800   1.307050  -2.296360 -44.488500   0.001398  -0.000653 -29.629400   0.011120  -0.009551  10.010900   1.921670   7.023940  69.217800  10.642300  -4.035880   2.268300  -4.912410  15.767700 -13.570700 -16.819000   5.577850 -39.627300  34.993300  70.181200  30.529600   0.002432  -0.001354  10.268800   0.000772  -0.002556  35.312100   6.345130   8.869000  29.294700   0.000458   0.014527  20.506300   0.001543   0.009267  28.290700   1.457180   2.704570  34.472300  -0.000468   0.000222  22.958500   0.007124   0.011534  28.587300  -0.296108  -0.543297  37.279900  -0.010491  -0.001328  24.828400   0.006170   0.014235  41.661500  -1.565210  -1.760370  62.527900  -0.000226   0.000777  41.643600   0.000760   0.001584   0.385759   1.463530   2.457080   1.047300   2.384870  14.409800  -5.869020  -4.664930   4.258460  -0.000000   0.000000  -0.000000   0.857044   0.233144  -5.660350   0.693251   3.813430  -9.084800 -10.701400   0.435603  -1.314560  -0.000000   0.000000   0.000000
  0.260732  90.040300   1.512160  -0.483544  -0.974626  -4.166150  -0.404009   1.560300  -0.926204  -0.783155   3.126870  -1.842390   1.747450   0.731863  -0.023598   2.872180   1.479620   7.027460  -4.900090  -1.115610   5.440990 -72.816600  17.328300   2.459860  -3.959700  -8.012280 -15.344900  14.491200  -1.864570   9.567260  35.676000  19.020900 -53.153000 -27.880400   0.007010   0.003789  -8.940200   0.008322   0.006876 -31.116400   7.699060 -12.513400 -26.150500  -0.000910   0.001194 -18.305300  -0.000425   0.000819 -28.528200   1.732230  -3.182900 -37.077900  -0.007457   0.000574 -24.693900   0.004593   0.000085 -26.459900   1.616170  -3.243350 -26.505600  -0.002174   0.000632 -17.652700  -0.003490   0.000326 -29.672800   1.300460  -2.281080 -44.548000   0.001385  -0.000623 -29.669000   0.011124  -0.009537  10.011300   1.918320   7.030310  69.196700  10.663600  -4.049220   2.283290  -4.922770  15.729200 -13.540300 -16.819800   5.562370 -39.630400  34.995600  70.185500  30.525700   0.002425  -0.001343  10.269200   0.000775  -0.002548  35.295200   6.347060   8.875860  29.281300   0.000470   0.014530  20.496900   0.001553   0.009267  28.290500   1.458620   2.707450  34.449300  -0.000460   0.000212  22.943200   0.007131   0.011544  28.587300  -0.294320  -0.540034  37.260400  -0.010492  -0.001338  24.815400   0.006184   0.014229  41.650500  -1.565220  -1.760380  62.511600  -0.000233   0.000746  41.632700   0.000730   0.001574   0.385635   1.497840   2.457290   1.041930   2.354730  14.410500  -5.867760  -4.679680   4.268830   0.000000   0.000000  -0.000000   0.826678   0.267818  -5.676770   0.745741   3.752780  -9.065900 -10.716600   0.453398  -1.296770   0.000000   0.000000   0.000000
  0.266662  90.040400   1.526190  -0.483643  -0.973696  -4.181820  -0.404172   1.563570  -0.925329  -0.783415   3.133410  -1.840580   1.741030   0.735557  -0.023624   2.861890   1.487190   7.074710  -4.902530  -1.128390   5.441070 -72.831300  17.348000   2.459990  -3.967080  -8.025030 -15.353100  14.483300  -1.857950   9.570350  35.659900  19.002700 -53.168100 -27.893800   0.007014   0.003795  -8.945410   0.008331   0.006865 -31.182000   7.704010 -12.489800 -26.203300  -0.000858   0.001209 -18.342300  -0.000460   0.000828 -28.531800   1.715450  -3.151670 -37.113600  -0.007466   0.000601 -24.717700   0.004556   0.000105 -26.483700   1.601650  -3.210970 -26.528600  -0.002122   0.000648 -17.668000  -0.003517   0.000338 -29.701700   1.295810  -2.270100 -44.591100   0.001364  -0.000575 -29.697700   0.011131  -0.009515  10.012300   1.911090   7.033900  69.183600  10.686400  -4.062190   2.296960  -4.935490  15.702200 -13.506600 -16.816800   5.547790 -39.642300  35.004700  70.176900  30.525500   0.002421  -0.001329  10.267200   0.000768  -0.002533  35.275100   6.341150   8.873490  29.265700   0.000486   0.014530  20.486000   0.001569   0.009269  28.290700   1.455650   2.702280  34.422300  -0.000442   0.000195  22.925200   0.007141   0.011558  28.586900  -0.314300  -0.576745  37.240700  -0.010493  -0.001347  24.802300   0.006198   0.014220  41.639700  -1.565220  -1.760380  62.495600  -0.000237   0.000701  41.622000   0.000677   0.001562   0.384960   1.427790   2.457200   1.043090   2.436730  14.415100  -5.866330  -4.690950   4.275330   0.000000   0.000000   0.000000   0.809842   0.274196  -5.680960   0.772477   3.748860  -9.049610 -10.724200   0.453052  -1.293500   0.000000   0.000000  -0.000000
